<?xml version="1.0" encoding="utf-8"?>
<!-- Generator: Adobe Illustrator 25.4.1, SVG Export Plug-In . SVG Version: 6.00 Build 0)  -->
<svg version="1.1" id="Layer_1" xmlns="http://www.w3.org/2000/svg" xmlns:xlink="http://www.w3.org/1999/xlink" x="0px" y="0px"
	 viewBox="0 0 64 64" style="enable-background:new 0 0 64 64;" xml:space="preserve">
<path d="M43.2982788,15.2412109c0.0043335,0.000061,0.0079346,0.0024414,0.0122681,0.0024414
	c0.0048218,0,0.0087891-0.0026855,0.0135498-0.0027466c1.1478882,0.0064697,2.0802002,0.9407959,2.0802002,2.0901489
	c0,0.5522461,0.4472656,1,1,1s1-0.4477539,1-1c0-1.909729-1.3213501-3.505127-3.09375-3.9537354v-0.8509521
	c0-0.5522461-0.4472656-0.9946289-1-0.9946289s-1,0.453125-1,1.0053711V13.37854
	c-1.7701416,0.4500122-3.0888672,2.0442505-3.0888672,3.9525146c0,2.2558594,1.8349609,4.0908203,4.0908203,4.0908203
	c1.1533203,0,2.0917969,0.9379883,2.0917969,2.0913086s-0.9384766,2.0913086-2.0917969,2.0913086
	s-2.0908203-0.9379883-2.0908203-2.0913086c0-0.5522461-0.4472656-1-1-1s-1,0.4477539-1,1
	c0,1.9082642,1.3187256,3.5025024,3.0888672,3.9525146v1.1060791c0,0.5522461,0.4472656,1,1,1s1-0.4477539,1-1v-1.1048584
	c1.7723999-0.4486084,3.09375-2.0440063,3.09375-3.9537354c0-2.2558594-1.8359375-4.0913086-4.0917969-4.0913086
	c-1.1533203,0-2.0908203-0.9379883-2.0908203-2.0908203C41.2216797,16.1826172,42.1517334,15.2490845,43.2982788,15.2412109z"/>
<path d="M55.6025391,40.125l-11.5958252,4.9317017c0.1692505-0.4347534,0.2637939-0.9007568,0.2637939-1.3838501
	c0-2.0844727-1.6962891-3.7802734-3.7802734-3.7802734h-5.3271484c-0.9931641,0-1.9794922-0.1665039-2.9335938-0.4951172
	l-2.7412109-0.9350586c-1.1445312-0.3945312-2.3476562-0.5947266-3.5751953-0.5947266H15.7597656v-3.7260742
	c0-0.5522461-0.4472656-1-1-1H3.625c-0.5527344,0-1,0.4477539-1,1V55.0625c0,0.5522461,0.4472656,1,1,1h11.1347656
	c0.5527344,0,1-0.4477539,1-1v-2.0390625h5.0683594l13.6269531,4.8291016
	c0.7480469,0.2626953,1.5302734,0.3930664,2.3115234,0.3925781c1.0947266,0,2.1865234-0.2558594,3.1728516-0.7612305
	l19.1835938-9.8525391c1.1923828-0.6103516,1.9951172-1.7207031,2.2021484-3.0463867
	c0.2060547-1.3261719-0.2197266-2.6289062-1.1640625-3.5664062C59.0039062,39.8432617,57.0888672,39.4853516,55.6025391,40.125z
	 M13.7597656,54.0625H4.625V35.1416016h9.1347656V54.0625z M59.3486328,44.2768555
	c-0.1064453,0.6850586-0.5214844,1.2587891-1.1386719,1.574707l-19.1835938,9.8530273
	c-1.2021484,0.6162109-2.6259766,0.7128906-3.90625,0.262207l-13.7861328-4.8857422
	C21.2265625,51.0429688,21.1142578,51.0234375,21,51.0234375h-5.2402344V39.8676758h10.1533203
	c1.0048828,0,1.9882812,0.1630859,2.9257812,0.4863281l2.7412109,0.9350586
	c1.1621094,0.4003906,2.3671875,0.6035156,3.5830078,0.6035156h5.3271484c0.9814453,0,1.7802734,0.7988281,1.7802734,1.7802734
	c0,0.4814453-0.1835938,0.9301758-0.5097656,1.2568359c-0.3388672,0.3325195-0.8017578,0.5234375-1.2724609,0.5234375
	l-10.5439453,0.0092773c-0.3349609,0-0.6474609,0.1674805-0.8320312,0.4458008l-1.6826172,2.5283203
	c-0.3066406,0.4599609-0.1816406,1.0805664,0.2783203,1.3867188c0.1699219,0.1132812,0.3623047,0.1674805,0.5527344,0.1674805
	c0.3232422,0,0.640625-0.1567383,0.8330078-0.4458008l1.3867188-2.0825195l4.5095825-0.0041504
	c0.0073242,0.0001831,0.0133667,0.0041504,0.0206909,0.0041504H42.28125c0.7958984,0,1.5712891-0.1611328,2.2988281-0.4755859
	l11.8095703-5.0229492c0.7646484-0.3286133,1.7480469-0.1489258,2.3544922,0.465332
	C59.2353516,42.9174805,59.4560547,43.5908203,59.3486328,44.2768555z"/>
<path d="M49.7666016,5.7524414c-2.3837891,0-4.640625,0.8183594-6.4521484,2.3212891
	c-3.9746094-3.2900391-9.8916016-3.074707-13.6103516,0.6445312c-3.9257812,3.9262695-3.9462891,10.3037109-0.0605469,14.2558594
	c0.0175781,0.0209961,0.0371094,0.0415039,0.0566406,0.0615234L42.6054688,35.940918
	c0.1953125,0.1953125,0.4511719,0.2929688,0.7070312,0.2929688s0.5117188-0.0976562,0.7070312-0.2929688l12.9052734-12.9052734
	c1.9121094-1.9121094,2.9658203-4.4545898,2.9658203-7.1586914c0-2.7045898-1.0537109-5.246582-2.9658203-7.1586914
	C55.0126953,6.8056641,52.4707031,5.7524414,49.7666016,5.7524414z M55.5107422,21.621582L43.3125,33.8198242L31.1699219,21.6772461
	c-0.0166016-0.0200195-0.0341797-0.0390625-0.0537109-0.0581055c-3.1650391-3.1674805-3.1640625-8.3203125,0.0019531-11.4868164
	c3.1621094-3.1606445,8.3037109-3.1674805,11.4716797-0.0175781c0.1748047,0.1835938,0.4140625,0.2949219,0.6689453,0.309082
	c0.2841797,0.0166016,0.5625-0.090332,0.7626953-0.2915039c1.5341797-1.534668,3.5751953-2.3798828,5.7451172-2.3798828
	s4.2099609,0.8452148,5.7441406,2.3798828s2.3798828,3.574707,2.3798828,5.7446289S57.0449219,20.0869141,55.5107422,21.621582z"/>
</svg>
