<?xml version="1.0" encoding="UTF-8" standalone="no"?> <svg id="Layer_1" data-name="Layer 1" xmlns="http://www.w3.org/2000/svg" viewBox="0 0 128 128"><defs><style>.cls-1{fill:#2d3e50;}</style></defs><title>x</title><path class="cls-1" d="M115.17991,88.00374,112.232,61.551l-4.69071-42.06866a4.85754,4.85754,0,0,0-2.915-4.45463L65.951,2.19749a4.95058,4.95058,0,0,0-3.90038,0L23.37528,15.02768a4.87925,4.87925,0,0,0-2.915,4.45463L15.76955,61.551,12.81963,88.02221a9.68013,9.68013,0,0,0,4.22062,8.98319l40.28884,27.15894a11.93377,11.93377,0,0,0,13.34135,0l40.29089-27.17947A9.6772,9.6772,0,0,0,115.17991,88.00374Zm-9.09815,1.749-40.2909,27.17742a3.18907,3.18907,0,0,1-1.79007.55016V61.551H24.54951l4.36636-39.168L64.00078,10.74342V61.551h39.4513l3.04845,27.34165A.95275.95275,0,0,1,106.08176,89.75275Z"/></svg>